name processed_emg_signals
nRows=67
nColumns=7
 
endheader
time	LGLTMED	LRF	LADDLONG	LST	LTA	LGM
1.92	0.1765991769543197	0.365099161009925	0.3121184134032976	0.0254621567734669	0.0466314069369874	0.10075342425483
1.921	0.1825648750059292	0.3631327674446181	0.311057929042593	0.0249847524746606	0.0470137829468622	0.1000623469566448
1.922	0.1884843592828975	0.3611819548621063	0.3100057119544911	0.0245190036744968	0.0474154718729658	0.0993410040472349
1.923	0.1943519754407821	0.3592478329416071	0.3089614207429799	0.0240651799976059	0.0478354670286191	0.0985903564024024
1.924	0.2001621610405513	0.357331491265056	0.3079247361201196	0.0236235335822687	0.0482727912100884	0.0978114367485607
1.925	0.2059094493348735	0.3554339963539188	0.3068953605930967	0.0231942995041427	0.0487264964444725	0.0970053497904872
1.926	0.211588473025145	0.3535563888042372	0.305873018093305	0.0227776962154158	0.0491956637048754	0.0961732722781224
1.927	0.2171939679877212	0.3516996805264711	0.3048574535517598	0.0223739259980595	0.0496794025948807	0.0953164530097105
1.928	0.2227207769676171	0.3498648520966489	0.3038484324266027	0.0219831754297002	0.0501768510042355	0.0944362127683699
1.929	0.2281638532374667	0.3480528502247705	0.30284574018734	0.0216056158607881	0.0506871747377534	0.0935339441890132
1.93	0.2335182642192887	0.3462645853458448	0.3018491817623706	0.0212414039016113	0.0512095671192163	0.0926111115522776
1.931	0.2387791950663442	0.344500929338126	0.3008585809556984	0.0208906819177621	0.0517432485721614	0.0916692505019884
1.932	0.2439419522021298	0.3427627133731071	0.2998737798390804	0.0205535785327265	0.0522874661792406	0.0907099676823902
1.933	0.2490019668134229	0.3410507259011668	0.2988946381257608	0.0202302091362359	0.0528414932219132	0.0897349402912519
1.934	0.2539547982941066	0.3393657107766073	0.2979210325312452	0.0199206763972072	0.0534046287021757	0.0887459155448248
1.935	0.2587961376360038	0.3377083655260083	0.2969528561253157	0.0196250707800609	0.0539761968479815	0.0877447100507003
1.936	0.2635218107627998	0.3360793397641087	0.2959900176796086	0.0193434710633332	0.0545555466040962	0.0867332090846723
1.937	0.2681277818025392	0.3344792337617465	0.2950324410132603	0.0190759448594786	0.0551420511101097	0.0857133657679021
1.938	0.2726101562938517	0.3329085971703284	0.2940800643387224	0.0188225491348429	0.0557351071673628	0.0846872001410281
1.939	0.2769651843203941	0.3313679279067674	0.2931328396087636	0.0185833307287755	0.0563341346966227	0.083656798132403
1.94	0.281189263567332	0.3298576712026128	0.2921907318654688	0.0183583268708999	0.0569385761883689	0.082624310418225
1.941	0.2852789422930825	0.3283782188200657	0.2912537185910362	0.0181475656955625	0.0575478961475695	0.0815919511732037
1.942	0.2892309222091394	0.3269299084370523	0.2903217890601313	0.0179510667524423	0.0581615805347389	0.0805619967109614
1.943	0.2930420612604136	0.3255130232029393	0.2893949436930204	0.0177688415123593	0.0587791362050049	0.0795367840138458
1.944	0.2967093762984769	0.3241277914652529	0.2884731934086882	0.0176008938672428	0.0594000903468137	0.0785187091520557
1.945	0.3002300456395484	0.3227743866674201	0.2875565589770053	0.017447220623311	0.0600239899217455	0.0775102255921319
1.946	0.3036014114987013	0.321452927416449	0.2866450703697953	0.0173078119864731	0.0606504011068705	0.0765138423949962
1.947	0.3068209822912146	0.320163477718925	0.2857387661095984	0.0171826520389746	0.0612789087408763	0.0755321223038403
1.948	0.3098864347917719	0.3189060473836169	0.2848376926153334	0.0170717192063755	0.0619091157751514	0.0745676797224046
1.949	0.312795616142052	0.3176805925879261	0.283941903543235	0.0169749867138927	0.0625406427309188	0.0736231785842026
1.95	0.3155465456971906	0.3164870166058988	0.2830514591211829	0.0168924230311719	0.0631731271633342	0.0727013301134978
1.951	0.3181374167018738	0.3153251706943494	0.2821664254752218	0.0168239923045098	0.0638062231334113	0.0718048904787012
1.952	0.3205665977871675	0.3141948551332316	0.2812868739477968	0.0167696547756336	0.0644396006884837	0.0709366583390247
1.953	0.3228326342801915	0.3130958204160305	0.2804128804075363	0.0167293671860944	0.0650729453517805	0.0700994722852473
1.954	0.3249342493197659	0.3120277685850078	0.2795445245518516	0.016703083166411	0.0657059576216177	0.06929620817572
1.955	0.3268703447721496	0.3109903547061105	0.2786818892037415	0.0166907536091631	0.0663383524806708	0.0685297763689289
1.956	0.3286400019419296	0.3099831884774498	0.2778250596055164	0.0166923270251635	0.0669698589157346	0.067803118854322
1.957	0.3302424820738341	0.3090058359654639	0.2769741227122824	0.0167077498819735	0.067600219448443	0.0671192062833661
1.958	0.3316772266419552	0.3080578214619965	0.2761291664885784	0.0167369669239467	0.0682291896775954	0.0664810349032146
1.959	0.3329438574232612	0.3071386294557559	0.2752902792112798	0.0167799214730925	0.068856537833845	0.0658916233957891
1.96	0.3340421763525346	0.3062477067105781	0.2744575487817364	0.0168365557100054	0.0694820443477621	0.0653540096252471
1.961	0.3349721651560407	0.3053844644428195	0.2736310620495644	0.0169068109342238	0.0701055014324463	0.0648712472971752
1.962	0.3357339847616953	0.3045482805892832	0.272810904150618	0.0169906278033571	0.0707267126819082	0.0644464025327543
1.963	0.3363279744838309	0.3037385021569388	0.271997157861123	0.0170879465504482	0.071345492686385	0.0640825503613628
1.964	0.3367546509811336	0.3029544476445213	0.2711899029705295	0.0171987071790666	0.0719616666657067	0.0637827711349362
1.965	0.3370147069865317	0.3021954095258631	0.2703892156753545	0.017322849635706	0.0725750701216138	0.0635501468676374
1.966	0.3371090098076329	0.3014606567836675	0.2695951679975883	0.0174603139592434	0.0731855485098471	0.0633877575043564
1.967	0.3370385995962008	0.3007494374817503	0.2688078272301216	0.0176110404072274	0.0737929569325501	0.0632986771217441
1.968	0.3368046873843576	0.3000609813630721	0.2680272554131231	0.0177749695589159	0.0743971598514959	0.0632859700655835
1.969	0.3364086528846519	0.2993945024601164	0.2672535088449266	0.0179520423950296	0.0749980308224192	0.0633526870284386
1.97	0.3358520420506782	0.2987492017038558	0.2664866376317613	0.0181422003541552	0.0755954522505917	0.0635018610716966
1.971	0.3351365643948613	0.2981242695178748	0.2657266852801234	0.0183453853659231	0.0761893151677159	0.0637365035963574
1.972	0.3342640900605667	0.2975188883842869	0.2649736883359214	0.0185615398609692	0.0767795190301151	0.0640596002670959
1.973	0.3332366466464003	0.296932235370649	0.2642276760733413	0.0187906067579253	0.0773659715381325	0.0644741068943916
1.974	0.332056415781921	0.2963634846078662	0.2634886702358734	0.0190325294276149	0.0779485884766486	0.0649829452796232
1.975	0.3307257294555611	0.2958118097115924	0.2627566848313122	0.0192872516347916	0.0785272935764826	0.0655889990281951
1.976	0.3292470660975295	0.2952763861409056	0.2620317259814914	0.0195547174578193	0.0791020183962833	0.0662951093356722
1.977	0.3276230464228579	0.2947563934893186	0.2613137918273653	0.0198348711868609	0.0796727022243333	0.0671040707520142
1.978	0.3258564290419612	0.2942510177034995	0.2606028724893501	0.0201276572012303	0.0802392919995439	0.0680186269290081
1.979	0.3239501058485406	0.2937594532262826	0.2598989500828925	0.0204330198267366	0.080801742250709	0.069041466356117
1.98	0.3219070971963795	0.293280905060198	0.259201998788554	0.0207509031739054	0.0813600150531016	0.0701752180902178
1.981	0.31973054687811	0.2928145907484796	0.2585119849761015	0.0210812509580276	0.0819140800014178	0.0714224474848759
1.982	0.3174237169197831	0.2923597422694592	0.2578288673814708	0.0214240063020777	0.0824639141981138	0.0727856519250899
1.983	0.3149899822058574	0.2919156078410338	0.2571525973357889	0.0217791115235556	0.0830095022562571	0.0742672565736412
1.984	0.3124328249493562	0.2914814536306131	0.2564831190452184	0.022146507906442	0.0835508363160931	0.0758696101354215
1.985	0.3097558290214888	0.2910565653675816	0.2558203699207773	0.022526135459436	0.0840879160746085	0.0775949806465332
1.986	0.3069626741545668	0.2906402498544747	0.2551642809562027	0.0229179326617803	0.0846207488275007	0.0794455512952278
